<svg aria-hidden="true" style="position: absolute; width: 0; height: 0; overflow: hidden;" version="1.1" xmlns="http://www.w3.org/2000/svg" xmlns:xlink="http://www.w3.org/1999/xlink">
<defs>
<symbol id="icon-arrow" viewBox="0 0 32 32">
<path d="M0 0h32v32h-32z"></path>
</symbol>
<symbol id="icon-burger" viewBox="0 0 128 32">
<path fill="#d59d40" style="fill: var(--color1, #d59d40)" d="M32 16c0 8.837-7.163 16-16 16s-16-7.163-16-16c0-8.837 7.163-16 16-16s16 7.163 16 16z"></path>
<path fill="#d59d40" style="fill: var(--color1, #d59d40)" d="M80 16c0 8.837-7.163 16-16 16s-16-7.163-16-16c0-8.837 7.163-16 16-16s16 7.163 16 16z"></path>
<path fill="#d59d40" style="fill: var(--color1, #d59d40)" d="M128 16c0 8.837-7.163 16-16 16s-16-7.163-16-16c0-8.837 7.163-16 16-16s16 7.163 16 16z"></path>
</symbol>
<symbol id="icon-mail" viewBox="0 0 34 32">
<path d="M28.561 24.171c-0.774 0.679-1.64 1.289-2.568 1.801l-0.075 0.038c-0.877 0.484-1.893 0.897-2.961 1.186l-0.097 0.022c-1.005 0.276-2.159 0.435-3.35 0.435-0.002 0-0.005 0-0.007 0h0c-1.759 0-3.471-0.272-5.080-0.805-1.575-0.522-2.977-1.317-4.15-2.351-1.172-1.012-2.402-2.71-3.126-4.31-0.632-1.393-0.897-2.895-0.897-5.213 0-1.643 0.402-3.461 1.091-5.006 0.687-1.513 1.616-2.8 2.753-3.869l0.006-0.006c1.15-1.077 2.552-1.958 4.173-2.611 1.449-0.577 3.161-0.86 5.242-0.86 1.644 0 3.219 0.25 4.656 0.74 1.402 0.479 2.632 1.164 3.655 2.046 0.943 0.816 1.529 1.807 2.15 3.145 0.54 1.143 0.747 2.155 0.747 3.733 0 1.284-0.241 2.513-0.713 3.635-0.471 1.099-0.827 1.773-1.54 2.612-0.748 0.849-1.161 1.317-1.955 1.752-0.919 0.512-1.62 0.751-2.184 0.751-0.448 0-0.586-0.097-0.598-0.108-0.069-0.055-0.127-0.131-0.161-0.316-0.035-0.25 0-0.588 0.104-0.968 0.115-0.436 0.287-0.849 0.541-1.425l4.598-11.689h-3.023l-0.529 1.328c-0.414-0.455-0.896-0.839-1.431-1.139l-0.029-0.015c-1.31-0.718-2.414-1.012-3.816-1.012-1.632 0-3.161 0.403-4.517 1.197-1.331 0.781-2.45 1.773-3.349 2.944l-0.020 0.027c-0.896 1.175-1.126 1.807-1.54 2.971l-0.070 0.196c-0.494 1.393-0.746 2.764-0.746 4.081 0 0.881 0.172 1.741 0.506 2.536 0.333 0.805 0.793 1.501 1.368 2.067 0.563 0.588 1.264 1.056 2.092 1.415 0.805 0.349 1.69 0.534 2.644 0.534 1.057 0 2.023-0.163 3.149-0.534 0.653-0.217 1.218-0.532 1.711-0.933l-0.010 0.008c0.115 0.185 0.265 0.349 0.437 0.5 0.667 0.632 1.552 0.958 2.609 0.958s2.195-0.337 3.564-1.066c1.218-0.653 1.931-1.404 2.804-2.394 0.989-1.121 1.483-2.079 2.012-3.352 0.598-1.404 0.896-2.938 0.896-4.549 0-2.025-0.287-3.407-1.023-4.93-0.781-1.61-1.574-2.905-2.874-3.993-1.288-1.088-2.828-1.926-4.575-2.514-1.724-0.578-3.575-0.861-5.518-0.861-2.368 0-4.392 0.337-6.173 1.023-1.931 0.74-3.644 1.785-5.092 3.091-1.418 1.302-2.574 2.863-3.399 4.611l-0.038 0.090c-0.862 1.85-1.345 4.092-1.345 6.171 0 2.797 0.368 4.756 1.23 6.541 0.954 1.958 2.506 3.972 3.943 5.147 1.444 1.195 3.154 2.127 5.023 2.694l0.103 0.027c1.873 0.566 3.817 0.86 5.747 0.86 1.322 0 2.679-0.175 4.035-0.512 1.368-0.358 2.644-0.848 3.793-1.468 1.267-0.678 2.361-1.444 3.352-2.323l-0.018 0.016c1.034-0.914 2.207-2.34 2.62-3.037 0.218-0.381 0.357-0.663 0.425-0.838h-3.173c-0.609 0.707-1.264 1.415-2.011 2.079zM20.492 19.002c-0.517 0.62-0.851 0.99-1.253 1.24-0.448 0.294-0.805 0.479-1.264 0.577h-0.012c-0.46 0.109-0.954 0.174-1.46 0.174-0.586 0-1.115-0.098-1.586-0.294-0.484-0.193-0.897-0.47-1.241-0.816l-0-0c-0.346-0.348-0.629-0.759-0.829-1.215l-0.010-0.026c-0.189-0.459-0.299-0.991-0.299-1.549 0-0.010 0-0.021 0-0.031v0.002c0-0.979 0.195-2.046 0.586-3.156 0.047-0.13 0.092-0.272 0.127-0.37 0.31-0.903 0.471-1.186 1.046-2.089 0.529-0.827 1.357-1.589 2.506-2.319 0.908-0.576 1.92-0.87 3.024-0.87 0.448 0 0.919 0.055 1.414 0.152 0.356 0.076 0.54 0.175 0.896 0.37l0.023 0.011c0.047 0.022 0.092 0.043 0.15 0.076l0.035 0.022c0.401 0.218 0.758 0.5 1.069 0.849 0.241 0.272 0.436 0.62 0.586 1.055l-2.31 6.149c-0.357 0.827-0.759 1.523-1.196 2.057z"></path>
</symbol>
<symbol id="icon-facebook" viewBox="0 0 32 32">
<path d="M16 0c-8.837 0-16 7.163-16 16s7.163 16 16 16c8.837 0 16-7.163 16-16s-7.163-16-16-16zM17.668 16.703v8.705h-3.602v-8.703h-1.799v-3h1.799v-1.801c0-2.447 1.016-3.902 3.903-3.902h2.403v3h-1.503c-1.124 0-1.198 0.419-1.198 1.202l-0.004 1.501h2.722l-0.318 3h-2.403z"></path>
</symbol>
<symbol id="icon-twitter" viewBox="0 0 32 32">
<path d="M15.538 10.399l0.069 1.171-1.156-0.143c-4.208-0.549-7.885-2.412-11.006-5.542l-1.526-1.554-0.393 1.147c-0.832 2.556-0.3 5.255 1.434 7.071 0.925 1.003 0.717 1.147-0.878 0.549-0.555-0.191-1.041-0.334-1.087-0.263-0.162 0.167 0.393 2.341 0.832 3.201 0.602 1.195 1.827 2.365 3.168 3.058l1.133 0.549-1.341 0.024c-1.295 0-1.341 0.024-1.202 0.526 0.462 1.553 2.289 3.201 4.324 3.918l1.434 0.501-1.249 0.765c-1.85 1.099-4.023 1.719-6.197 1.767-1.040 0.024-1.896 0.119-1.896 0.191 0 0.239 2.821 1.577 4.462 2.102 4.925 1.553 10.775 0.884 15.168-1.768 3.122-1.887 6.243-5.637 7.7-9.268 0.786-1.935 1.572-5.471 1.572-7.167 0-1.099 0.069-1.243 1.364-2.556 0.763-0.764 1.48-1.6 1.619-1.839 0.231-0.454 0.208-0.454-0.971-0.048-1.966 0.717-2.243 0.621-1.272-0.454 0.717-0.764 1.572-2.15 1.572-2.556 0-0.071-0.347 0.048-0.74 0.263-0.416 0.239-1.341 0.597-2.035 0.812l-1.249 0.406-1.132-0.788c-0.624-0.43-1.503-0.908-1.965-1.051-1.179-0.335-2.982-0.287-4.046 0.095-2.89 1.075-4.717 3.845-4.509 6.88z"></path>
</symbol>
<symbol id="icon-google" viewBox="0 0 32 32">
<path d="M0 16c0-8.837 7.163-16 16-16s16 7.163 16 16c0 8.837-7.163 16-16 16s-16-7.163-16-16zM13.072 15.543v1.737h2.883c-0.116 0.746-0.871 2.186-2.883 2.186-1.735 0-3.152-1.434-3.152-3.199s1.417-3.199 3.152-3.199c0.988 0 1.649 0.42 2.026 0.782l1.38-1.324c-0.886-0.826-2.034-1.325-3.406-1.325-2.811 0-5.084 2.266-5.084 5.067s2.273 5.067 5.084 5.067c2.934 0 4.88-2.055 4.88-4.951 0-0.333-0.036-0.587-0.080-0.839h-4.8zM22.513 15.543h1.452v1.447h-1.452v1.447h-1.453v-1.447h-1.452v-1.447h1.452v-1.447h1.453v1.447z"></path>
</symbol>
<symbol id="icon-instagram" viewBox="0 0 32 32">
<path d="M31.462 15.733c0 2.116 0.006 4.233 0 6.355-0.012 3.074-1.442 5.35-3.996 6.958-1.495 0.934-3.156 1.348-4.918 1.348-3.854 0-7.703 0.018-11.557-0.006-2.677-0.018-4.983-0.964-6.81-2.949-1.129-1.23-1.803-2.678-1.998-4.351-0.042-0.355-0.048-0.703-0.048-1.058 0-4.215-0.005-8.429 0-12.644 0.019-3.081 1.449-5.356 4.003-6.964 1.507-0.94 3.174-1.348 4.948-1.348 3.842 0 7.685-0.018 11.527 0.006 2.69 0.018 5.001 0.97 6.827 2.967 1.117 1.224 1.786 2.672 1.974 4.327 0.077 0.65 0.042 1.3 0.048 1.945 0.005 1.809 0 3.612 0 5.415zM4.329 15.733c0 2.17-0.006 4.333 0 6.502 0.006 1.49 0.549 2.773 1.566 3.837 1.365 1.424 3.068 2.116 5.025 2.128 3.884 0.023 7.762 0.006 11.645 0.006 1.253 0 2.447-0.272 3.535-0.899 2.034-1.164 3.18-2.879 3.18-5.279v-12.798c0-1.478-0.538-2.755-1.549-3.813-1.354-1.43-3.062-2.133-5.013-2.146-3.925-0.029-7.844-0.012-11.77-0.012-1.223 0-2.382 0.29-3.446 0.893-2.028 1.17-3.18 2.885-3.174 5.285v6.295z"></path>
<path d="M16.82 22c-3.819 0-6.881-3.051-6.875-6.858 0.005-3.707 3.109-6.745 6.898-6.739 3.807 0 6.881 3.056 6.875 6.828-0.005 3.736-3.097 6.769-6.898 6.769zM16.82 19.812c2.595 0 4.711-2.063 4.711-4.599 0-2.548-2.099-4.623-4.688-4.623-2.595 0-4.711 2.063-4.711 4.599 0 2.548 2.099 4.623 4.688 4.623zM23.068 7.847c0-0.839 0.644-1.513 1.448-1.513s1.449 0.679 1.449 1.513c0 0.821-0.644 1.495-1.436 1.502-0.804 0.005-1.46-0.662-1.46-1.502z"></path>
</symbol>
<symbol id="icon-phone" viewBox="0 0 32 32">
<path d="M32 25.273c0 0.409-0.076 0.943-0.227 1.602s-0.311 1.178-0.477 1.557c-0.319 0.758-1.243 1.561-2.774 2.409-1.424 0.774-2.833 1.16-4.227 1.16-0.409 0-0.807-0.027-1.193-0.080-0.506-0.075-0.947-0.174-1.376-0.302l0.070 0.018c-0.495-0.133-0.855-0.246-1.21-0.369l0.13 0.039c-0.235-0.084-0.656-0.239-1.262-0.466-0.037-0.030-0.406-0.168-0.777-0.303l-0.337-0.106c-1.485-0.531-2.81-1.159-3.977-1.886-1.94-1.197-3.944-2.83-6.011-4.898s-3.701-4.072-4.898-6.011c-0.727-1.167-1.356-2.492-1.887-3.977-0.241-0.708-0.379-1.077-0.522-1.444l0.113 0.33c-0.227-0.606-0.382-1.026-0.465-1.261-0.084-0.225-0.197-0.585-0.299-0.949l-0.031-0.13c-0.11-0.36-0.209-0.801-0.277-1.252l-0.007-0.054c-0.051-0.354-0.080-0.764-0.080-1.18 0-0.005 0-0.009 0-0.014v0.001c0-1.395 0.386-2.804 1.159-4.228 0.849-1.53 1.652-2.455 2.409-2.773 0.38-0.167 0.899-0.326 1.558-0.478 0.657-0.151 1.192-0.227 1.602-0.227 0.212 0 0.371 0.023 0.477 0.068 0.273 0.091 0.674 0.667 1.204 1.727 0.167 0.288 0.394 0.697 0.682 1.228 0.288 0.529 0.553 1.011 0.795 1.443s0.477 0.837 0.705 1.216c0.045 0.061 0.178 0.25 0.398 0.568s0.382 0.588 0.489 0.807c0.106 0.22 0.159 0.436 0.159 0.648 0 0.303-0.216 0.682-0.648 1.136-0.428 0.45-0.888 0.86-1.381 1.23l-0.028 0.021c-0.52 0.389-0.98 0.784-1.411 1.207l0.002-0.002c-0.432 0.425-0.648 0.773-0.648 1.046 0 0.136 0.038 0.307 0.113 0.511s0.14 0.36 0.193 0.465c0.053 0.106 0.159 0.288 0.318 0.546s0.246 0.401 0.262 0.432c1.151 2.076 2.469 3.856 3.954 5.341s3.265 2.803 5.341 3.955c0.030 0.015 0.175 0.102 0.432 0.262s0.439 0.265 0.545 0.318c0.106 0.053 0.262 0.118 0.466 0.193s0.375 0.113 0.512 0.113c0.272 0 0.621-0.215 1.045-0.648s0.826-0.902 1.204-1.409c0.39-0.521 0.8-0.981 1.246-1.405l0.005-0.004c0.454-0.432 0.833-0.648 1.136-0.648 0.212 0 0.428 0.053 0.648 0.159s0.489 0.269 0.807 0.489c0.318 0.22 0.507 0.353 0.568 0.398 0.379 0.227 0.784 0.462 1.216 0.704-0.104-0.034 0.367 0.231 0.841 0.492l0.602 0.304c0.531 0.288 0.94 0.515 1.228 0.682 1.061 0.53 1.637 0.931 1.727 1.204 0.045 0.106 0.068 0.265 0.068 0.477z"></path>
</symbol>
<symbol id="icon-play" viewBox="0 0 43 32">
<path fill="#d59d40" style="fill: var(--color1, #d59d40)" opacity="0.7" d="M10.667 0h21.333c5.891 0 10.667 4.776 10.667 10.667v10.667c0 5.891-4.776 10.667-10.667 10.667h-21.333c-5.891 0-10.667-4.776-10.667-10.667v-10.667c0-5.891 4.776-10.667 10.667-10.667z"></path>
<path fill="#fff" style="fill: var(--color2, #fff)" d="M30.32 15.030c0.070 0.040 0.104 0.060 0.128 0.076 0.648 0.42 0.648 1.369 0 1.789-0.023 0.015-0.058 0.035-0.128 0.076l-12.64 7.298c-0.070 0.040-0.104 0.060-0.129 0.073-0.688 0.351-1.509-0.124-1.549-0.895-0.002-0.028-0.002-0.068-0.002-0.148v-14.595c0-0.080 0-0.12 0.002-0.148 0.041-0.771 0.861-1.245 1.549-0.894 0.025 0.013 0.060 0.033 0.129 0.073l12.64 7.298z"></path>
</symbol>
</defs>
</svg>
