<svg width="315" height="386" viewBox="0 0 315 386" fill="none" xmlns="http://www.w3.org/2000/svg">
<path fill-rule="evenodd" clip-rule="evenodd" d="M61.6241 367.412C77.0396 328.259 115.327 227.467 117.317 203.043C120.19 170.308 101.813 163.06 77.5654 153.498C59.0774 146.206 37.1769 137.569 18.6817 115.261C-35.3911 47.8899 37.9667 -31.7543 110.811 13.0389C148.292 36.0671 154.457 98.254 144.042 147.898C131.038 210.765 109.625 269.959 87.5209 331.065C82.7455 344.267 77.9378 357.557 73.1757 370.993C68.9772 382.839 58.3945 376.524 61.6241 367.412ZM227.624 375.412C243.04 336.259 281.327 235.467 283.317 211.043C286.19 178.308 267.813 171.06 243.565 161.498C225.077 154.206 203.177 145.569 184.682 123.261C130.609 55.8899 203.967 -23.7543 276.811 21.0389C314.292 44.0671 320.457 106.254 310.042 155.898C297.038 218.765 275.625 277.959 253.521 339.065C248.746 352.267 243.938 365.557 239.176 378.993C234.977 390.839 224.395 384.524 227.624 375.412Z" fill="#F0F0F0"/>
</svg>
