<svg width="126" height="135" viewBox="0 0 126 135" fill="none" xmlns="http://www.w3.org/2000/svg">
<path d="M83.1809 62.7357C83.8912 54.0655 97.5588 18.2855 103.062 4.38661C104.215 1.15193 100.437 -1.08981 98.9382 3.11526C89.3693 29.9631 79.2858 55.1731 73.6409 82.3116C69.9229 99.9345 72.1237 122.01 85.5032 130.185C111.507 146.086 137.693 117.813 118.391 93.897C103.13 75.5925 81.3734 83.2165 83.1809 62.7357Z" fill="#451A1A" fill-opacity="0.1"/>
<path d="M11.2154 62.7357C11.9256 54.0655 25.5933 18.2855 31.0962 4.38661C32.2491 1.15193 28.4713 -1.08981 26.9726 3.11526C17.4038 29.9631 7.3203 55.1731 1.67537 82.3116C-2.04263 99.9345 0.158165 122.01 13.5377 130.185C39.5412 146.086 65.7279 117.813 46.4254 93.897C31.1642 75.5925 9.40787 83.2165 11.2154 62.7357Z" fill="#451A1A" fill-opacity="0.1"/>
</svg>
